PathFileType	4	(X/Y/Z)	C:/Users/beibeiliu/ov580/test_trc/User3\sequence.9_training_dense_right.trc
DataRate	CameraRate	NumFrames	NumMarkers	Units	OrigDataRate	OrigDataStartFrame	OrigNumFrames
120	120	18	19	mm	120	1	213
Frame#	Time	ThumbCMC			ThumbMCP			ThumbIP			ThumbTip			IndexMCP			IndexPIP			IndexTip			MiddleMCP			MiddlePIP			MiddleTip			RingMCP			RingPIP			RingTip			PinkyMCP			PinkyPIP			PinkyTip			BackHand1			BackHand2			BackHand3	
		X0	Y0	Z0	X1	Y1	Z1	X2	Y2	Z2	X3	Y3	Z3	X4	Y4	Z4	X5	Y5	Z5	X6	Y6	Z6	X7	Y7	Z7	X8	Y8	Z8	X9	Y9	Z9	X10	Y10	Z10	X11	Y11	Z11	X12	Y12	Z12	X13	Y13	Z13	X14	Y14	Z14	X15	Y15	Z15	X16	Y16	Z16	X17	Y17	Z17	X18	Y18	Z18	
0	0	126.293	-24.8155	42.9081	103.709	-32.445	18.3408	92.8064	-41.1084	-8.92717	87.0153	-49.6379	-28.7152	142.723	-18.6248	-34.9302	137.312	-29.2327	-63.2801	130.632	-37.815	-83.1351	171.113	-21.7069	-38.7834	166.77	-30.3132	-66.269	167.456	-47.3119	-94.7532	186.437	-29.6466	-30.2781	189.41	-37.3883	-56.0807	193.174	-52.3005	-80.6096	203.63	-41.8867	-13.5423	213.018	-52.0948	-32.6348	220.606	-64.6355	-49.2785	185.247	-13.755	20.2897	184.867	-8.74315	51.39	153.476	-4.13686	34.1413	
1	0.00833333	124.687	-24.584	37.9603	108.05	-33.1697	19.6929	94.9863	-41.029	-10.1937	84.2988	-49.9205	-26.5183	142.726	-19.6733	-34.7107	135.434	-27.9761	-63.2546	134.286	-41.4862	-85.7544	167.679	-20.8345	-37.9643	166.718	-31.3933	-70.1559	167.554	-47.9079	-96.7901	184.41	-29.1027	-32.7332	193.448	-37.8075	-52.7086	191.723	-52.0205	-80.3465	202.831	-42.0711	-12.8474	213.618	-52.4325	-33.7664	216.548	-65.5099	-53.2696	184.877	-14.5505	20.2497	185.1	-10.1399	50.8262	153.371	-3.38527	30.8319	
2	0.0166667	123.535	-24.1841	43.2786	108.8	-33.2378	17.2576	93.7632	-40.5313	-9.40029	88.1214	-49.0929	-28.1456	143.428	-19.6743	-35.0658	135.201	-26.6432	-59.722	135.457	-39.9786	-82.9421	168.337	-21.3646	-42.8683	166.764	-30.6228	-69.7313	168.121	-48.727	-97.6828	187.304	-29.4845	-30.917	189.723	-36.4826	-53.1552	192.345	-52.3456	-78.6957	203.699	-40.7792	-14.2267	213.097	-52.089	-31.1335	217.406	-63.3708	-49.8215	186.067	-14.4602	19.2353	188.65	-9.9814	48.2762	155.604	-3.18455	32.4927	
3	0.025	123.163	-23.6449	39.8816	106.52	-32.3254	19.3244	95.01	-40.055	-11.1351	86.6267	-49.5737	-29.7463	141.865	-18.4574	-33.7448	135.791	-28.4715	-63.8456	136.962	-40.8622	-84.6269	172.7	-21.5697	-40.6021	171.204	-32.0096	-70.4294	170.686	-49.108	-95.5299	186.593	-28.1459	-33.0382	191.804	-37.498	-57.3214	191.358	-52.4566	-79.6162	203.69	-40.8393	-13.2658	212.088	-50.8459	-30.001	218.867	-66.0191	-53.0858	184.212	-12.0864	18.6266	187.104	-11.5645	50.7425	152.513	-3.43989	28.4879	
4	0.0333333	122.574	-22.6991	38.2305	107.886	-32.1989	18.0338	94.8271	-39.7802	-10.0887	88.453	-50.0062	-30.8771	143.967	-19.2031	-37.7175	136.167	-26.3963	-61.7039	137.493	-41.0458	-84.0119	168.279	-20.0371	-38.1178	169.225	-32.2995	-70.5904	168.073	-47.0921	-95.179	185.691	-29.0911	-28.331	189.175	-37.5222	-58.2821	192.082	-52.4539	-81.6483	204.688	-42.026	-10.5818	213.561	-52.1607	-34.6662	218.583	-67.1817	-53.0012	184.737	-13.1857	21.6316	190.491	-10.3916	50.45	157.763	-4.61569	32.3309	
5	0.0416667	123.49	-24.0644	37.1837	110.269	-33.3275	17.4004	96.8459	-41.0671	-5.91361	89.5305	-49.9507	-27.59	141.182	-19.5555	-36.1417	140.524	-29.0032	-63.5385	131.82	-41.6218	-87.0947	170.809	-21.2502	-38.1061	171.8	-31.0016	-67.3744	167.611	-46.4225	-93.8045	185.301	-29.0533	-31.9642	192.493	-36.9857	-55.0341	190.252	-50.9437	-77.9714	207.054	-42.9291	-13.6551	212.035	-50.6642	-31.6349	221.34	-67.5253	-54.0132	189.025	-15.5598	19.2048	187.862	-11.5699	47.4538	157.765	-5.29945	28.3415	
6	0.05	125.469	-25.7514	38.7466	106.569	-32.651	18.9673	92.2892	-40.1664	-8.54006	85.273	-50.1051	-26.9684	141.952	-20.3308	-35.8475	134.737	-28.6371	-63.5433	136.482	-42.4564	-85.1238	167.747	-20.5547	-39.2313	168.757	-30.8568	-67.29	167.553	-47.8887	-95.0589	189.008	-29.7923	-31.0788	193.063	-37.7988	-54.6186	193.508	-51.7488	-77.5078	203.533	-42.227	-11.4181	215.07	-54.1038	-32.2639	220.399	-68.457	-53.7364	185.192	-13.5932	21.99	185.063	-11.3752	49.9126	154.938	-5.80076	29.3797	
7	0.0583333	123.868	-25.1764	42.885	106.906	-32.4201	18.5303	93.4471	-39.9729	-7.5012	85.4215	-48.701	-28.785	139.932	-18.9816	-36.4413	137.421	-30.191	-64.7385	133.556	-42.7708	-87.6417	169.603	-22.0844	-40.7541	168.7	-31.7837	-68.6918	169.996	-50.5871	-98.25	189.324	-31.1164	-31.7155	193.814	-39.0085	-55.6206	190.791	-50.5592	-78.0889	203.553	-41.8831	-10.178	211.957	-51.1928	-30.0416	221.508	-66.0151	-51.6719	185.053	-12.5716	17.4179	185.839	-10.3882	51.6011	152.703	-4.00852	32.0583	
8	0.0666667	126.641	-25.5992	37.817	106.618	-32.7264	18.8285	95.2447	-40.397	-5.71864	85.1392	-49.4398	-26.0288	141.895	-20.7211	-37.556	136.196	-28.7121	-63.6619	135.057	-40.7221	-83.6877	170.112	-22.2999	-39.6744	169.237	-33.9401	-70.4763	166.799	-47.529	-93.3079	185.913	-29.5684	-28.2813	190.325	-37.8747	-53.2555	192.294	-53.0206	-80.4169	205.169	-42.4223	-11.628	211.042	-52.4003	-32.7698	221.107	-67.1298	-48.3525	189.18	-13.8066	19.2262	189.132	-11.9324	48.5958	156.075	-5.74905	32.8684	
9	0.075	123.883	-24.2962	42.5517	105.969	-33.6807	18.3828	93.3675	-40.6537	-5.57967	84.384	-49.3496	-27.4876	143.93	-20.6858	-37.355	134.562	-28.0547	-60.1266	133.563	-43.2394	-85.4922	166.942	-21.6174	-42.5703	168.313	-33.7469	-70.2492	165.431	-47.1746	-94.45	186.814	-30.0816	-28.257	189.249	-37.7891	-53.3528	190.602	-52.3872	-78.7471	207.038	-43.5201	-11.2123	212.253	-52.5796	-31.9258	217.741	-64.5782	-51.5909	183.442	-15.3277	21.4719	188.709	-13.0305	47.5478	158.094	-4.57178	33.5852	
10	0.0833333	126.614	-25.0351	39.3301	104.407	-32.8992	16.2293	90.5712	-41.9533	-7.3553	85.0256	-51.0756	-28.4986	141.576	-19.5858	-33.8486	134.284	-29.7272	-63.9392	136.637	-41.5233	-83.7624	169.069	-23.0635	-41.3348	170.838	-32.3812	-66.8414	167.404	-49.2928	-94.1045	188.442	-30.9139	-31.8311	190.724	-38.122	-54.2512	191.134	-52.6754	-78.5585	207.215	-44.5159	-11.362	211.816	-52.6143	-32.0046	218.51	-66.6579	-54.2848	183.707	-14.9681	22.9678	187.475	-10.9675	51.1689	156.425	-6.93994	33.8183	
11	0.0916667	125.044	-25.8835	43.4174	109.964	-33.8059	18.1625	92.9322	-41.602	-10.8904	83.8201	-50.3781	-30.671	139.977	-20.6203	-36.4542	136.818	-29.8119	-63.4945	134.088	-43.352	-86.0464	166.536	-22.2812	-38.6305	169.42	-33.0459	-68.6958	164.652	-48.5705	-95.5668	187.784	-30.6382	-31.377	191.611	-39.2556	-53.9994	189.815	-54.5376	-80.3287	203.553	-43.0963	-16.1318	213.256	-54.1285	-34.8347	219.507	-67.8603	-52.3712	186.476	-15.77	17.7142	187.034	-12.3287	49.2746	153.012	-6.44365	29.259	
12	0.1	123.279	-25.3863	42.3686	109.28	-33.9991	17.7749	94.6265	-41.7579	-5.74658	85.8743	-49.4363	-26.7275	139.672	-19.9041	-38.6128	137.191	-29.9785	-62.9831	131.232	-40.7285	-82.3069	166.744	-22.964	-43.532	170.68	-36.058	-70.051	167.017	-50.7575	-94.7675	186.572	-31.4926	-32.7205	192.719	-41.6335	-56.8576	188.555	-53.6077	-80.5864	205.964	-43.9141	-15.043	210.898	-53.5251	-34.1042	216.073	-66.9587	-53.4997	185.424	-13.8899	18.9476	187.106	-13.8256	48.5831	154.22	-4.58219	33.0594	
13	0.108333	127.881	-26.5869	39.2973	108.616	-34.7315	16.8208	96.5789	-41.2233	-7.89153	86.3479	-50.0411	-25.8066	143.749	-21.3591	-35.6375	138.691	-30.1267	-63.0636	132.43	-44.2667	-87.3204	171.639	-24.2825	-38.916	170.424	-34.5655	-66.8629	167.45	-52.7658	-97.0728	189.45	-33.6012	-33.5631	187.035	-40.3926	-55.5394	190.388	-54.0957	-77.2778	206.327	-45.4788	-11.6483	211.963	-56.5901	-35.189	214.055	-66.2997	-51.9553	185.313	-15.8072	21.8358	188.188	-14.3689	47.2459	154.394	-4.84602	32.8972	
14	0.116667	126.242	-26.8319	38.9529	105.647	-34.7356	18.5522	95.466	-41.9477	-7.96927	86.3019	-50.5759	-31.8837	141.598	-20.5188	-39.5995	138.282	-31.8825	-65.091	131.11	-43.3291	-84.9335	167.201	-24.7962	-41.336	170.299	-35.3688	-66.3786	165.185	-52.6433	-96.3563	189.656	-34.6667	-32.2415	189.715	-43.0921	-59.0543	187.505	-57.6718	-82.0638	204.331	-46.7575	-12.8128	213.693	-56.8221	-32.2643	214.529	-70.8921	-55.6719	189.099	-18.4876	20.3057	187.113	-14.5598	48.9082	155.878	-7.9214	29.1941	
15	0.125	125.187	-25.9784	38.2966	108.411	-35.7786	17.2182	94.4875	-42.6896	-7.65512	88.1248	-51.8063	-28.3375	141.112	-20.0467	-38.6791	134.855	-31.2988	-65.0326	129.193	-42.9917	-85.2455	168.557	-25.567	-43.5385	165.414	-36.1586	-70.9228	162.01	-51.912	-95.4648	184.877	-33.3218	-34.1511	191.743	-42.9367	-55.4957	187.976	-59.7175	-80.8489	204.831	-47.3974	-14.3893	211.193	-58.4871	-34.2159	211.338	-72.6246	-55.4443	191.222	-18.325	21.1668	191.998	-16.1633	46.8427	157.05	-8.3334	32.8121	
16	0.133333	128.921	-28.2129	39.1676	107.572	-36.3129	15.7633	98.1901	-44.2372	-12.0823	89.4227	-53.8259	-31.6591	141.745	-19.7059	-39.416	134.049	-29.2929	-63.8342	132.677	-44.7913	-86.8965	167.979	-23.2678	-40.5478	165.314	-35.4565	-68.602	164.342	-56.9574	-92.6133	185.002	-33.2398	-29.87	187.149	-45.4517	-59.0587	182.061	-64.7761	-80.6426	204.523	-47.5372	-12.7678	206.81	-60.6736	-38.5412	204.099	-77.94	-56.7272	189.773	-18.0824	21.6459	192.139	-16.9652	50.509	158.636	-9.25157	34.051	
17	0.141667	126.988	-26.1224	37.5728	111.628	-37.2539	12.5853	96.3538	-44.8504	-9.47548	90.9144	-53.8037	-29.5566	145.496	-18.9801	-39.6052	138.591	-28.4186	-64.5014	133.319	-42.8084	-84.3285	170.28	-25.621	-43.4585	165.335	-40.4919	-71.1659	154.711	-64.6588	-90.3343	183.931	-33.0646	-33.8484	185.95	-51.0878	-60.4816	174.209	-71.5481	-73.5667	201.868	-47.6715	-18.3891	203.2	-63.9424	-40.2609	198.214	-85.2682	-52.7912	191.978	-19.23	20.9424	192.768	-18.181	51.9648	157.185	-7.91388	33.7244	
